<svg xmlns="http://www.w3.org/2000/svg" viewBox="0 0 461.34 461.34"><defs><style>.a{fill:#ff8e3c;}</style></defs><title>logo</title><path class="a" d="M19,249.7A229.83,229.83,0,0,1,77.77,95.9V403.5A229.83,229.83,0,0,1,19,249.7Z" transform="translate(-19.02 -19.03)"/><path class="a" d="M338.46,196.52q0,27.4-35.2,28.93H245.1V167.59h58.16Q338.45,169.12,338.46,196.52Z" transform="translate(-19.02 -19.03)"/><path class="a" d="M249.69,19a230,230,0,0,0-81.46,14.8V465.57a230,230,0,0,0,81.46,14.8c127.39,0,230.67-103.27,230.67-230.67S377.08,19,249.69,19ZM340,377q-9.19-6.09-9.19-27.41v-32Q329.27,281,297.13,281h-52V377H179.29V144q0-32,33.67-32H325.45q75.75,0,80.34,73.85-1.53,54.82-41.32,67.76,34.44,14.46,34.44,59.39l.76,22.07q0,33.51,19.13,41.88Z" transform="translate(-19.02 -19.03)"/></svg>